<svg width="13" height="14" viewBox="0 0 13 14" fill="none" xmlns="http://www.w3.org/2000/svg">
<path fill-rule="evenodd" clip-rule="evenodd" d="M7.59236 8.41385C6.16044 9.84578 3.83883 9.84578 2.40691 8.41385C0.974987 6.98193 0.974987 4.66033 2.40691 3.2284C3.83883 1.79648 6.16044 1.79648 7.59236 3.2284C9.02428 4.66033 9.02428 6.98193 7.59236 8.41385ZM8.03274 9.79681C6.07252 11.2962 3.25693 11.1495 1.4641 9.35666C-0.488522 7.40404 -0.488521 4.23822 1.4641 2.28559C3.41672 0.332973 6.58255 0.332973 8.53517 2.28559C10.3279 4.07834 10.4747 6.89376 8.97552 8.85397L12.5422 12.4207L11.5994 13.3635L8.03274 9.79681Z" fill="#999999"/>
</svg>
